<svg xmlns="http://www.w3.org/2000/svg" viewBox="0 0 24 24"><path d="M17.669 15.284a5.336 5.336 0 0 0 3.857-1.57 6.349 6.349 0 0 0 1.461-4.384.516.516 0 0 0-.514-.479h-3.9V7.705a.516.516 0 0 0-.515-.515H1.521A.516.516 0 0 0 1 7.705v3.679a8.877 8.877 0 0 0 4.69 7.831H2.9a1.89 1.89 0 1 0 0 3.779h14.6a1.89 1.89 0 1 0 0-3.779h-3.6a8.876 8.876 0 0 0 3.769-3.931zm.908-3.9v-1.5h3.378a5.081 5.081 0 0 1-1.189 3.136 4.142 4.142 0 0 1-2.659 1.2 8.879 8.879 0 0 0 .47-2.836zM17.5 20.246a.859.859 0 0 1 0 1.718H2.9a.859.859 0 0 1 0-1.718zm-7.709-1.031a7.8 7.8 0 0 1-7.755-7.831V8.221h15.511v3.163a7.8 7.8 0 0 1-7.756 7.831zM9.936 6.5a.516.516 0 0 0 .515-.516V1.521a.516.516 0 0 0-1.031 0v4.466a.516.516 0 0 0 .516.513zM6.3 6.5a.516.516 0 0 0 .516-.516V2.9a.516.516 0 0 0-1.031 0v3.087A.516.516 0 0 0 6.3 6.5zM13.572 6.5a.516.516 0 0 0 .515-.516V2.9a.516.516 0 0 0-1.031 0v3.087a.516.516 0 0 0 .516.513z"/></svg>